# xmcd
#
# Track frame offsets:
#	150
#	39913
#	69159
#	108838
#	134003
#	166648
#	203361
#	229817
#	260319
#
# Disc length: 3756 seconds
#
# Revision: 0
# Processed by: cddbd v1.5.2PL0 Copyright (c) Steve Scherf et al.
# Submitted via: EasyCDDAExtractor 16.0.1.1
#
DISCID=670eaa09
DTITLE=Eric Clapton - The Twelfth Night Cd1
DYEAR=1989
DGENRE=Blues
TTITLE0=Crossroads
TTITLE1=White Room
TTITLE2=I Shot The Sheriff
TTITLE3=Bell Bottom Blues
TTITLE4=Lay Down Sally
TTITLE5=I Wanna Make Love To You
TTITLE6=After Midnight
TTITLE7=Can't Find My Way Home
TTITLE8=Forever Man
EXTD=
EXTT0=
EXTT1=
EXTT2=
EXTT3=
EXTT4=
EXTT5=
EXTT6=
EXTT7=
EXTT8=
PLAYORDER=
